<svg width="158" height="162" viewBox="0 0 158 162" fill="none" xmlns="http://www.w3.org/2000/svg">
<path d="M115.816 38.5622C115.507 38.536 115.208 38.5202 114.91 38.5045H114.46C113.711 38.473 112.983 38.4572 112.256 38.4572C111.528 38.4572 110.784 38.4887 110.041 38.515C65.805 40.1479 30.9253 68.4433 32.1504 101.753C32.8101 119.768 43.9149 135.562 60.9778 145.984C43.8102 160.313 26.4227 165.936 14.2498 159.11C-6.76598 147.291 -4.24241 102.74 19.8781 59.6066C43.9987 16.473 80.6114 -8.92406 101.606 2.90026C111.68 8.52363 116.339 21.6659 115.816 38.5622Z" fill="#963ADD"/>
<path d="M157.421 117.911C156.096 137.516 118.484 174.622 63.4257 147.398L63.3576 147.361C62.5409 146.904 61.7346 146.432 60.9492 145.944C69.9021 138.477 78.7975 128.617 86.8499 116.976C92.221 118.221 97.7346 118.737 103.243 118.509C113.086 118.147 121.96 115.648 128.51 111.857C128.594 111.804 128.677 111.762 128.761 111.705C140.321 105.21 148.588 91.3848 148.588 91.3848C148.588 91.3848 158.646 99.8067 157.421 117.911Z" fill="#963ADD"/>
<path d="M108.059 76.0118C104.762 85.1251 100.721 93.9498 95.9752 102.396C93.106 107.531 90.0589 112.409 86.8757 117.008C74.2787 114.021 65.4096 107.032 65.1059 98.6313C64.6766 86.8647 81.0589 76.7101 101.703 75.9435C102.797 75.9015 103.87 75.8857 104.939 75.9015H105.211C106.169 75.9225 107.122 75.9645 108.059 76.0118Z" fill="#963ADD"/>
<path d="M153.924 70.1765C153.98 71.7767 153.921 73.3788 153.746 74.9703C153.688 75.5374 153.61 76.1149 153.51 76.6978C152.634 81.8217 150.978 86.7802 148.599 91.3994C138.756 80.3732 122.945 76.409 108.07 75.9312C112.866 62.5527 115.463 49.7412 115.798 38.5627C116.06 38.5627 116.322 38.6048 116.615 38.631C117.714 38.729 118.823 38.862 119.939 39.03C120.505 39.1088 121.06 39.2033 121.62 39.3083L122.248 39.4238L122.814 39.5446C123.07 39.5919 123.337 39.6496 123.583 39.7074C123.83 39.7651 123.955 39.7914 124.138 39.8334C124.898 40.0067 125.652 40.2062 126.405 40.4109L126.835 40.537C127.882 40.8363 128.929 41.167 129.945 41.5346C130.526 41.7394 131.107 41.9546 131.683 42.1909C132.259 42.4272 132.73 42.6057 133.196 42.8262C133.463 42.9365 133.72 43.052 133.981 43.178C134.243 43.304 134.474 43.3985 134.72 43.5246C134.966 43.6506 135.275 43.7923 135.557 43.9393C135.84 44.0864 136.081 44.1966 136.327 44.3384C136.573 44.4802 136.756 44.5642 136.96 44.6797C140.516 46.5909 143.735 49.0741 146.489 52.0305C146.678 52.2405 146.866 52.4453 147.05 52.6606C147.604 53.3011 148.097 53.9575 148.62 54.64C148.788 54.8606 148.95 55.0916 149.112 55.3279C149.91 56.499 150.62 57.7275 151.238 59.0033C151.321 59.1615 151.394 59.3246 151.458 59.4916C151.741 60.1059 152.008 60.736 152.238 61.3818C152.296 61.5183 152.338 61.6601 152.385 61.7913C152.432 61.9226 152.484 62.0644 152.526 62.2061C152.568 62.3479 152.667 62.6367 152.735 62.8625C153.364 64.955 153.748 67.1133 153.882 69.2944C153.903 69.578 153.919 69.8772 153.924 70.1765Z" fill="#963ADD"/>
</svg>
