<svg width="12" height="13" viewBox="0 0 12 13" fill="none" xmlns="http://www.w3.org/2000/svg">
<g clip-path="url(#clip0_2050_4545)">
<path d="M9.06718 2.21367C8.49531 1.6418 7.56718 1.6418 6.99531 2.21367L2.68281 6.52617C1.69609 7.51289 1.69609 9.11133 2.68281 10.098C3.66953 11.0848 5.26797 11.0848 6.25468 10.098L9.81718 6.53555C10.0727 6.28008 10.4898 6.28008 10.7453 6.53555C11.0008 6.79102 11.0008 7.2082 10.7453 7.46367L7.18281 11.0262C5.68281 12.5262 3.25468 12.5262 1.75468 11.0262C0.254684 9.52617 0.254684 7.09805 1.75468 5.59805L6.06718 1.28555C7.15234 0.200391 8.91015 0.200391 9.99531 1.28555C11.0805 2.3707 11.0805 4.12852 9.99531 5.21367L5.87031 9.33867C5.2 10.009 4.1125 10.009 3.44218 9.33867C2.77187 8.66836 2.77187 7.58086 3.44218 6.91055L6.81718 3.53555C7.07265 3.28008 7.48984 3.28008 7.74531 3.53555C8.00078 3.79102 8.00078 4.2082 7.74531 4.46367L4.37031 7.83867C4.21328 7.9957 4.21328 8.25352 4.37031 8.41055C4.52734 8.56758 4.78515 8.56758 4.94218 8.41055L9.06718 4.28555C9.63906 3.71367 9.63906 2.78555 9.06718 2.21367Z" fill="#7F1DE1"/>
</g>
<defs>
<clipPath id="clip0_2050_4545">
<path d="M0.53125 0.25H11.0312V12.25H0.53125V0.25Z" fill="white"/>
</clipPath>
</defs>
</svg>
