<svg width="26" height="20" viewBox="0 0 26 20" fill="none" xmlns="http://www.w3.org/2000/svg">
<path d="M2.83951 0C2.04089 0.029789 1.37538 0.312519 0.842978 0.848213C0.310571 1.38391 0.0295782 2.05356 0 2.85714V4.28571H25.5556V2.85714C25.5259 2.05356 25.245 1.38391 24.7126 0.848213C24.1802 0.312519 23.5147 0.029789 22.716 0H2.83951ZM25.5556 8.57143H0V17.1429C0.0295782 17.9464 0.310571 18.6161 0.842978 19.1518C1.37538 19.6875 2.04089 19.9702 2.83951 20H22.716C23.5147 19.9702 24.1802 19.6875 24.7126 19.1518C25.245 18.6161 25.5259 17.9464 25.5556 17.1429V8.57143ZM4.96914 14.2857H7.80864C8.25232 14.3155 8.48894 14.5536 8.51852 15C8.48894 15.4464 8.25232 15.6845 7.80864 15.7143H4.96914C4.52546 15.6845 4.28884 15.4464 4.25926 15C4.28884 14.5536 4.52546 14.3155 4.96914 14.2857ZM9.93827 15C9.96785 14.5536 10.2045 14.3155 10.6481 14.2857H16.3272C16.7708 14.3155 17.0074 14.5536 17.037 15C17.0074 15.4464 16.7708 15.6845 16.3272 15.7143H10.6481C10.2045 15.6845 9.96785 15.4464 9.93827 15Z" fill="#9437DA"/>
</svg>
