<svg width="20" height="20" viewBox="0 0 20 20" fill="none" xmlns="http://www.w3.org/2000/svg">
<rect width="20" height="20" rx="10" fill="white"/>
<path d="M20 10C20 12.7614 19.0237 15.1184 17.0711 17.0711C15.1184 19.0237 12.7614 20 10 20C7.23858 20 4.88155 19.0237 2.92893 17.0711C0.976311 15.1184 0 12.7614 0 10C0 7.23858 0.976311 4.88155 2.92893 2.92893C4.88155 0.976311 7.23858 0 10 0C12.7614 0 15.1184 0.976311 17.0711 2.92893C19.0237 4.88155 20 7.23858 20 10ZM15.0375 6.2125C14.8493 6.02493 14.6223 5.93385 14.3567 5.93926C14.091 5.94468 13.8679 6.04492 13.6875 6.24L9.34625 11.7712L6.73 9.15375C6.54531 8.98165 6.32676 8.89783 6.07435 8.90228C5.82194 8.90674 5.60648 8.99822 5.42798 9.17673C5.24947 9.35523 5.15799 9.57069 5.15353 9.8231C5.14908 10.0755 5.2329 10.2941 5.405 10.4787L8.7125 13.7875C8.90031 13.975 9.12687 14.0662 9.39218 14.0613C9.6575 14.0564 9.88052 13.9568 10.0612 13.7625L15.0513 7.525C15.2282 7.34103 15.3154 7.12143 15.313 6.8662C15.3106 6.61096 15.2179 6.39306 15.0375 6.2125Z" fill="#22C55E"/>
</svg>
