<svg width="25" height="20" viewBox="0 0 25 20" fill="none" xmlns="http://www.w3.org/2000/svg">
<path d="M5.625 0C6.79687 0.0260658 7.69531 0.5469 8.32031 1.5625C8.89323 2.60417 8.89323 3.64583 8.32031 4.6875C7.69531 5.7031 6.79687 6.22393 5.625 6.25C4.45313 6.22393 3.55469 5.7031 2.92969 4.6875C2.35677 3.64583 2.35677 2.60417 2.92969 1.5625C3.55469 0.5469 4.45313 0.0260658 5.625 0ZM20 0C21.1719 0.0260658 22.0703 0.5469 22.6953 1.5625C23.2682 2.60417 23.2682 3.64583 22.6953 4.6875C22.0703 5.7031 21.1719 6.22393 20 6.25C18.8281 6.22393 17.9297 5.7031 17.3047 4.6875C16.7318 3.64583 16.7318 2.60417 17.3047 1.5625C17.9297 0.5469 18.8281 0.0260658 20 0ZM0 11.6797C0.0260417 10.4818 0.42969 9.49214 1.21094 8.71088C1.99219 7.92968 2.98177 7.52607 4.17969 7.5H5.82031C6.44531 7.5 7.03125 7.63023 7.57812 7.89062C7.52604 8.17709 7.5 8.46353 7.5 8.75C7.55208 10.2865 8.11198 11.5365 9.17969 12.5H0.820312C0.325521 12.4479 0.0520833 12.1745 0 11.6797ZM15.8203 12.5C16.888 11.5365 17.4479 10.2865 17.5 8.75C17.5 8.46353 17.474 8.17709 17.4219 7.89062C17.9688 7.63023 18.5547 7.5 19.1797 7.5H20.8203C22.0182 7.52607 23.0078 7.92968 23.7891 8.71088C24.5703 9.49214 24.9739 10.4818 25 11.6797C24.9479 12.1745 24.6745 12.4479 24.1797 12.5H15.8203ZM8.75 8.75C8.75 8.07293 8.91927 7.44793 9.25781 6.875C9.59635 6.30207 10.0521 5.84635 10.625 5.50781C11.2239 5.16928 11.8489 5 12.5 5C13.1511 5 13.7761 5.16928 14.375 5.50781C14.9479 5.84635 15.4037 6.30207 15.7422 6.875C16.0807 7.44793 16.25 8.07293 16.25 8.75C16.25 9.42707 16.0807 10.0521 15.7422 10.625C15.4037 11.1979 14.9479 11.6536 14.375 11.9922C13.7761 12.3307 13.1511 12.5 12.5 12.5C11.8489 12.5 11.2239 12.3307 10.625 11.9922C10.0521 11.6536 9.59635 11.1979 9.25781 10.625C8.91927 10.0521 8.75 9.42707 8.75 8.75ZM5 18.9453C5.02604 17.487 5.53385 16.263 6.52344 15.2734C7.51302 14.2839 8.73697 13.776 10.1953 13.75H14.8047C16.263 13.776 17.487 14.2839 18.4766 15.2734C19.4661 16.263 19.9739 17.487 20 18.9453C19.9479 19.5964 19.5964 19.9479 18.9453 20H6.05469C5.40364 19.9479 5.05208 19.5964 5 18.9453Z" fill="#9437DA"/>
</svg>
