<svg width="15" height="13" viewBox="0 0 15 13" fill="none" xmlns="http://www.w3.org/2000/svg">
<path d="M1.49267 11.6335C1.62767 12.4232 2.28768 13 3.06265 13H11.9375C12.7075 13 13.3676 12.4232 13.5075 11.6335L14.9925 3.04992C15.0275 2.84208 14.9375 2.63424 14.7675 2.51992C14.5925 2.40561 14.3725 2.416 14.2075 2.5355L11.0975 4.86848L7.90748 0.218228C7.90748 0.218228 7.89248 0.197444 7.87748 0.187053C7.85248 0.155877 7.82248 0.124701 7.78748 0.098723C7.73248 0.0519611 7.66748 0.0259797 7.60248 0.0155878C7.57248 0.00519595 7.53749 0 7.50748 0H7.49248C7.45748 0 7.42248 0.00519595 7.38748 0.0155878C7.32748 0.0311757 7.26249 0.0571554 7.20748 0.098723L7.19748 0.109115C7.19748 0.109115 7.16248 0.135095 7.14748 0.155877C7.12748 0.171465 7.11248 0.187053 7.10249 0.207836C7.10249 0.207836 7.09249 0.207836 7.09249 0.218228L3.89747 4.86848L0.792478 2.5355C0.62748 2.416 0.407486 2.40561 0.232477 2.51992C0.0624772 2.63423 -0.0275226 2.84207 0.00747901 3.04992L1.49267 11.6335Z" fill="#FFC149"/>
</svg>
