<svg width="36" height="36" viewBox="0 0 36 36" fill="none" xmlns="http://www.w3.org/2000/svg">
<path d="M34.7955 16.6593L7.79549 3.15929C7.25496 2.88683 6.60017 2.96886 6.14168 3.3673C5.68318 3.76574 5.51033 4.40001 5.70222 4.9757L10.044 18.0011L5.70222 31.0265C5.51033 31.6022 5.68318 32.2364 6.14168 32.6349C6.42 32.8766 6.77156 33.0011 7.12459 33.0011C7.3531 33.0011 7.58308 32.9484 7.79548 32.8429L34.7955 19.3429C35.3038 19.088 35.6246 18.5694 35.6246 18.0011C35.6246 17.4327 35.3038 16.9142 34.7955 16.6593Z" fill="#FFCA28"/>
<path d="M5.70222 31.0254C5.51033 31.6011 5.68318 32.2354 6.14168 32.6338C6.42 32.8755 6.77156 33 7.12459 33C7.3531 33 7.58308 32.9473 7.79548 32.8418L34.7955 19.3418C35.3038 19.0869 35.6246 18.5684 35.6246 18H10.044L5.70222 31.0254Z" fill="#FFB300"/>
</svg>
