<svg width="347" height="136" viewBox="0 0 347 136" fill="none" xmlns="http://www.w3.org/2000/svg">
<g filter="url(#filter0_d_1943_12430)">
<g clip-path="url(#clip0_1943_12430)">
<rect width="343" height="132" rx="8" fill="#6D62CB"/>
<path d="M205.083 142.394C206.5 131.174 212.871 107.637 227.022 103.249C244.711 97.7645 256.536 109.443 269.397 96.0122C282.258 82.5813 269.227 71.5127 286.752 57.1079C304.277 42.7031 312.775 64.4083 330.542 52.9974C348.309 41.5865 328.448 26.8642 346.375 13.9871C364.303 1.11003 349.501 15.8248 361.317 1.53775C370.769 -9.89193 369.396 1.10826 367.867 -2.27353" stroke="white" stroke-opacity="0.2" stroke-width="2"/>
<path d="M211.525 154.99C212.941 143.77 219.312 120.233 233.463 115.845C251.152 110.36 262.977 122.039 275.838 108.608C288.7 95.177 275.669 84.1084 293.193 69.7036C310.718 55.2988 319.216 77.004 336.983 65.5931C354.75 54.1822 334.889 39.4599 352.817 26.5828C370.744 13.7057 355.943 28.4205 367.758 14.1335C377.21 2.70378 375.838 13.704 374.309 10.3222" stroke="white" stroke-opacity="0.2" stroke-width="2"/>
<path d="M137.917 142.394C136.5 131.174 130.129 107.637 115.978 103.249C98.2892 97.7645 86.4642 109.443 73.603 96.0122C60.7418 82.5813 73.7728 71.5127 56.248 57.1079C38.7232 42.7031 30.2253 64.4083 12.4581 52.9974C-5.30901 41.5865 14.5523 26.8642 -3.37517 13.9871C-21.3026 1.11003 -6.50112 15.8248 -18.3166 1.53775C-27.769 -9.89193 -26.3962 1.10826 -24.8671 -2.27353" stroke="white" stroke-opacity="0.2" stroke-width="2"/>
<path d="M131.475 154.99C130.059 143.77 123.688 120.233 109.537 115.845C91.8478 110.36 80.0228 122.039 67.1616 108.608C54.3004 95.177 67.3314 84.1084 49.8066 69.7036C32.2818 55.2988 23.7839 77.004 6.01673 65.5931C-11.7504 54.1822 8.11086 39.4599 -9.81658 26.5828C-27.744 13.7057 -12.9425 28.4205 -24.758 14.1335C-34.2104 2.70378 -32.8376 13.704 -31.3085 10.3222" stroke="white" stroke-opacity="0.2" stroke-width="2"/>
</g>
</g>
<defs>
<filter id="filter0_d_1943_12430" x="0" y="0" width="347" height="136" filterUnits="userSpaceOnUse" color-interpolation-filters="sRGB">
<feFlood flood-opacity="0" result="BackgroundImageFix"/>
<feColorMatrix in="SourceAlpha" type="matrix" values="0 0 0 0 0 0 0 0 0 0 0 0 0 0 0 0 0 0 127 0" result="hardAlpha"/>
<feOffset dx="4" dy="4"/>
<feComposite in2="hardAlpha" operator="out"/>
<feColorMatrix type="matrix" values="0 0 0 0 0.720574 0 0 0 0 0.699522 0 0 0 0 0.900478 0 0 0 1 0"/>
<feBlend mode="normal" in2="BackgroundImageFix" result="effect1_dropShadow_1943_12430"/>
<feBlend mode="normal" in="SourceGraphic" in2="effect1_dropShadow_1943_12430" result="shape"/>
</filter>
<clipPath id="clip0_1943_12430">
<rect width="343" height="132" rx="8" fill="white"/>
</clipPath>
</defs>
</svg>
