<svg width="37" height="36" viewBox="0 0 37 36" fill="none" xmlns="http://www.w3.org/2000/svg">
<g clip-path="url(#clip0_1555_5718)">
<path d="M31.0473 24.0015H12.5016C12.0677 24.001 11.6518 23.8284 11.345 23.5216C11.0383 23.2149 10.8657 22.7989 10.8652 22.3651V4.36486C10.8657 3.93103 11.0383 3.51511 11.3451 3.20834C11.6518 2.90158 12.0677 2.72902 12.5016 2.72852H31.0473C31.4811 2.729 31.8971 2.90155 32.2038 3.20832C32.5106 3.51509 32.6832 3.93101 32.6837 4.36486V22.3651C32.6832 22.7989 32.5106 23.2149 32.2039 23.5217C31.8971 23.8285 31.4811 24.001 31.0473 24.0015Z" fill="#FFCC66"/>
<path d="M31.0482 2.72852H21.7754V24.0015H31.0482C31.4819 24.0002 31.8973 23.8274 32.2039 23.5208C32.5106 23.2142 32.6834 22.7987 32.6847 22.3651V4.36486C32.6834 3.93125 32.5106 3.51576 32.204 3.20916C31.8973 2.90256 31.4819 2.72976 31.0482 2.72852Z" fill="#FFBA55"/>
<path d="M24.2168 10.831L21.7729 9.3451L19.3291 10.831C18.9846 11.056 18.487 10.7775 18.5003 10.365V3.27392C18.5002 3.20228 18.5143 3.13135 18.5417 3.06516C18.5691 2.99898 18.6093 2.93884 18.66 2.88819C18.7106 2.83754 18.7708 2.79737 18.837 2.76997C18.9032 2.74258 18.9741 2.72849 19.0457 2.72852H24.5003C24.5719 2.72849 24.6429 2.74258 24.709 2.76997C24.7752 2.79737 24.8354 2.83754 24.886 2.88819C24.9367 2.93884 24.9769 2.99898 25.0043 3.06516C25.0317 3.13135 25.0458 3.20228 25.0458 3.27392V10.365C25.0577 10.7766 24.563 11.0567 24.2168 10.831Z" fill="#F8834B"/>
<path d="M19.0498 13.6367H14.6861C14.3848 13.6367 14.1406 13.8809 14.1406 14.1822V18.5459C14.1406 18.8471 14.3848 19.0913 14.6861 19.0913H19.0498C19.351 19.0913 19.5953 18.8471 19.5953 18.5459V14.1822C19.5953 13.8809 19.351 13.6367 19.0498 13.6367Z" fill="#EDEBF2"/>
<path d="M11.4116 10.9084C9.96545 10.9067 8.57903 10.3315 7.55646 9.30892C6.53389 8.28634 5.95869 6.89991 5.95703 5.45377C6.2567 -1.78253 16.5677 -1.78042 16.8662 5.45384C16.8645 6.89998 16.2893 8.28641 15.2667 9.30897C14.2442 10.3315 12.8577 10.9067 11.4116 10.9084Z" fill="#9DCC6B"/>
<path d="M11.4102 0V10.9093C18.6491 10.602 18.6435 0.304515 11.4102 0Z" fill="#84B749"/>
<path d="M10.8631 6.98854C10.7259 6.98872 10.5936 6.93695 10.4929 6.84363L9.12772 5.58254C8.60622 5.09641 9.34203 4.29923 9.86816 4.78142L10.8631 5.70052L13.2224 3.52033C13.7468 3.03891 14.4852 3.83427 13.9628 4.32145L11.2334 6.84363C11.1327 6.93696 11.0004 6.98873 10.8631 6.98854Z" fill="#EDEBF2"/>
<path d="M24.5027 2.72852H21.7754V9.34475L24.2193 10.8307C24.5651 11.0557 25.0609 10.7772 25.0481 10.3646V3.27392C25.0482 3.20228 25.0341 3.13135 25.0067 3.06516C24.9792 2.99898 24.9391 2.93884 24.8884 2.88819C24.8378 2.83754 24.7776 2.79737 24.7114 2.76997C24.6452 2.74258 24.5743 2.72849 24.5027 2.72852Z" fill="#F66824"/>
<path d="M36.382 19.2748C35.4445 17.0113 33.0053 17.8436 30.2456 19.3074C29.5387 19.6972 24.9253 22.2464 24.3324 22.5694C24.3324 22.5687 24.3323 22.568 24.3321 22.5673C24.3318 22.5666 24.3314 22.566 24.3309 22.5655C24.3304 22.565 24.3298 22.5646 24.3291 22.5643C24.3284 22.5641 24.3277 22.5639 24.327 22.5639C24.2003 22.2423 24.001 21.9543 23.7445 21.7225C23.4881 21.4906 23.1815 21.3212 22.8488 21.2275C22.7145 21.1943 22.5776 21.1724 22.4397 21.1621L13.2981 20.5675C12.6865 20.5294 12.0754 20.6482 11.5226 20.9126C10.9699 21.1771 10.4939 21.5784 10.1398 22.0785L7.83255 25.264H5.4107C5.26617 25.2644 5.12767 25.322 5.02547 25.4242C4.92327 25.5264 4.86566 25.6649 4.86523 25.8095V33.8168C4.86566 33.9613 4.92327 34.0998 5.02547 34.202C5.12767 34.3042 5.26617 34.3618 5.4107 34.3623H6.86164C8.53791 34.3581 10.189 33.9542 11.6779 33.1841C13.1063 32.4379 14.7039 32.0751 16.3144 32.1313C18.8126 32.2297 22.2108 32.1313 24.1962 31.1004C26.7708 29.764 33.0273 24.2931 35.5964 22.0076C36.3765 21.3149 36.6929 20.2132 36.382 19.2748Z" fill="#F6CCAF"/>
<path d="M35.5966 22.0097C33.0273 24.2952 26.771 29.7661 24.1963 31.1025C22.2108 32.1334 18.8126 32.2316 16.3145 32.1334C14.7039 32.0772 13.1064 32.44 11.6781 33.1862C9.76877 34.2275 7.54309 34.4497 5.4107 34.3643C5.26617 34.3639 5.12766 34.3063 5.02545 34.2041C4.92324 34.1019 4.86564 33.9634 4.86523 33.8189V31.6371C4.86566 31.7816 4.92327 31.9201 5.02547 32.0223C5.12767 32.1245 5.26617 32.1821 5.4107 32.1826H6.86171C8.53798 32.1784 10.1891 31.7744 11.678 31.0043C13.1064 30.2581 14.7039 29.8954 16.3145 29.9516C18.8127 30.05 22.2109 29.9516 24.1963 28.9206C26.7709 27.5843 33.0273 22.1133 35.5965 19.8278C35.8705 19.5846 36.0915 19.2875 36.2456 18.9551C36.7636 19.9518 36.4655 21.2375 35.5966 22.0097Z" fill="#EDB996"/>
<path d="M4.28975 36.0001H1.04547C0.973833 36.0002 0.902894 35.9861 0.836706 35.9586C0.770518 35.9312 0.710379 35.8911 0.659723 35.8404C0.609068 35.7898 0.56889 35.7296 0.541484 35.6634C0.514078 35.5972 0.499982 35.5263 0.5 35.4547V24.5454C0.499982 24.4738 0.514078 24.4028 0.541485 24.3366C0.568892 24.2705 0.609071 24.2103 0.659728 24.1597C0.710384 24.109 0.770524 24.0689 0.836711 24.0415C0.902899 24.0141 0.973836 24 1.04547 24H4.28975C4.73108 24.0005 5.15421 24.176 5.46628 24.4881C5.77836 24.8001 5.95388 25.2233 5.95435 25.6646V34.3355C5.95388 34.7769 5.77836 35.2 5.46628 35.5121C5.15421 35.8241 4.73108 35.9997 4.28975 36.0001Z" fill="#425B72"/>
<path d="M0.5 32.1816V35.4544C0.500427 35.5989 0.558033 35.7374 0.660236 35.8396C0.762439 35.9418 0.900934 35.9994 1.04547 35.9999H4.29094C4.73192 35.999 5.1546 35.8235 5.46642 35.5117C5.77824 35.1998 5.95379 34.7772 5.95463 34.3362V32.1816H0.5Z" fill="#374F68"/>
<path d="M3.77446 33.2732C3.7713 33.9866 2.68662 33.9865 2.68359 33.2732C2.68669 32.5599 3.77116 32.56 3.77446 33.2732Z" fill="#293B4D"/>
<path d="M25.4357 22.7126C25.4357 23.8963 24.5302 24.8835 23.3793 24.9599L17.9847 25.309C17.8403 25.3181 17.6981 25.27 17.5888 25.1751C17.4796 25.0801 17.4122 24.946 17.4011 24.8017C17.3937 24.6568 17.4431 24.5147 17.5388 24.4057C17.6346 24.2966 17.7692 24.2293 17.9138 24.2181L23.3137 23.8691C23.9381 23.8347 24.4235 23.217 24.3337 22.5709L25.3265 22.0254C25.3989 22.2473 25.4358 22.4792 25.4357 22.7126Z" fill="#EDB996"/>
</g>
<defs>
<clipPath id="clip0_1555_5718">
<rect width="36.0006" height="36" fill="white" transform="translate(0.5)"/>
</clipPath>
</defs>
</svg>
