<svg width="32" height="32" viewBox="0 0 32 32" fill="none" xmlns="http://www.w3.org/2000/svg">
<path d="M12.0884 8.62932H19.9129C20.0672 8.62627 20.2166 8.57558 20.3401 8.48443C20.4635 8.39327 20.5548 8.26625 20.6009 8.1213C20.5548 7.97635 20.4635 7.84933 20.3401 7.75818C20.2166 7.66702 20.0672 7.61634 19.9129 7.61328H12.0884C11.9341 7.61634 11.7847 7.66702 11.6612 7.75818C11.5378 7.84933 11.4465 7.97635 11.4004 8.1213C11.4465 8.26625 11.5378 8.39327 11.6612 8.48443C11.7847 8.57558 11.9341 8.62627 12.0884 8.62932Z" fill="#A80132"/>
<path d="M12.0884 7.10588H19.9129C20.0672 7.10283 20.2166 7.05214 20.3401 6.96099C20.4635 6.86983 20.5548 6.74281 20.6009 6.59786C20.5548 6.45291 20.4635 6.32589 20.3401 6.23474C20.2166 6.14358 20.0672 6.0929 19.9129 6.08984H12.0884C11.9341 6.0929 11.7847 6.14358 11.6612 6.23474C11.5378 6.32589 11.4465 6.45291 11.4004 6.59786C11.4465 6.74281 11.5378 6.86983 11.6612 6.96099C11.7847 7.05214 11.9341 7.10283 12.0884 7.10588Z" fill="#A80132"/>
<path d="M11.0123 1.65516C11.0511 1.68107 11.0918 1.70596 11.1367 1.73238C11.1553 1.74305 11.1749 1.75321 11.1945 1.76388C11.2461 1.79029 11.2978 1.81468 11.3551 1.84262C11.3721 1.85075 11.3896 1.85887 11.4067 1.8665C11.8222 2.03724 12.2546 2.16494 12.697 2.24751L12.7156 2.25107C12.8498 2.27799 12.9896 2.30187 13.1362 2.32727C14.0833 2.47211 15.0408 2.54126 15.9992 2.53403C18.8482 2.53403 20.6443 2.02601 21.1605 1.51799C21.1605 1.51799 20.1282 0.501953 15.9992 0.501953C11.8701 0.501953 10.8379 1.51799 10.8379 1.51799C10.8783 1.55652 10.9214 1.59217 10.9669 1.62468C10.9809 1.63484 10.9974 1.645 11.0123 1.65516Z" fill="#DE8800"/>
<path d="M11.4035 1.86725C11.386 1.85975 11.369 1.85175 11.3535 1.84375C11.3715 1.85175 11.3875 1.85975 11.4035 1.86725Z" fill="#FFC608"/>
<path d="M13.1387 2.32881L13.3173 2.94199C13.4952 3.55656 13.8718 4.0973 14.39 4.48232C14.9082 4.86733 15.5397 5.07563 16.189 5.07567H18.4419C19.0746 5.07323 19.6863 4.85186 20.1699 4.4503L21.1624 1.51953C20.6463 2.02755 18.8502 2.53557 16.0011 2.53557C15.0429 2.54277 14.0856 2.47362 13.1387 2.32881Z" fill="#FFC608"/>
<path d="M18.6135 9.13867H15.4899C13.3991 10.3036 11.6698 12.0064 10.4871 14.0647C9.30443 16.123 8.71295 18.4593 8.77605 20.8231C8.77605 30.4755 28.9051 28.9515 28.9051 24.3793C28.9051 20.7012 24.487 11.4146 18.6135 9.13867Z" fill="#FFC608"/>
<path d="M11.1381 1.73347C11.0932 1.70807 11.0524 1.68267 11.0137 1.65625C11.0524 1.68216 11.0932 1.70807 11.1381 1.73347Z" fill="#F09413"/>
<path d="M13.1374 2.3262C12.9909 2.30283 12.851 2.2754 12.7168 2.25C12.8515 2.27896 12.9909 2.30283 13.1374 2.3262Z" fill="#F09413"/>
<path d="M11.3539 1.84241C11.2966 1.81651 11.2434 1.79161 11.1934 1.76367C11.2439 1.79009 11.2976 1.81651 11.3539 1.84241Z" fill="#F09413"/>
<path d="M32.0011 12.6944L30.2824 13.5428L29.4205 15.2345L28.5586 13.5428L26.8398 12.6944L28.5586 11.846L29.4205 10.1543L30.2824 11.846L32.0011 12.6944Z" fill="#FF9C00"/>
<path d="M5.16129 6.59869L3.44258 7.44709L2.58065 9.13879L1.71871 7.44709L0 6.59869L1.71871 5.7503L2.58065 4.05859L3.44258 5.7503L5.16129 6.59869Z" fill="#FF9C00"/>
<path d="M20.7699 20.1875C20.6877 20.3894 20.6457 20.605 20.646 20.8225V27.95C20.1351 27.9653 19.6189 27.9653 19.0977 27.9399V22.3466C19.0977 21.5033 19.7377 20.7412 20.7699 20.1875Z" fill="#F09413"/>
<path d="M20.5992 8.12192C20.553 7.97697 20.4618 7.84995 20.3383 7.7588C20.2149 7.66764 20.0655 7.61696 19.9112 7.6139C20.1109 7.60819 20.3002 7.52477 20.4376 7.38194C20.575 7.2391 20.6492 7.0485 20.6441 6.85187C20.6433 6.76536 20.6282 6.67955 20.5992 6.59786C20.553 6.45291 20.4618 6.32589 20.3383 6.23474C20.2149 6.14358 20.0655 6.0929 19.9112 6.08984H12.0867C11.9324 6.0929 11.783 6.14358 11.6595 6.23474C11.5361 6.32589 11.4448 6.45291 11.3987 6.59786C11.3697 6.67955 11.3545 6.76536 11.3538 6.85187C11.3486 7.0485 11.4229 7.2391 11.5603 7.38194C11.6976 7.52477 11.8869 7.60819 12.0867 7.6139C11.9324 7.61696 11.783 7.66764 11.6595 7.7588C11.5361 7.84995 11.4448 7.97697 11.3987 8.12192C11.3697 8.20361 11.3545 8.28942 11.3538 8.37593C11.3486 8.57256 11.4229 8.76317 11.5603 8.906C11.6976 9.04884 11.8869 9.13225 12.0867 9.13796H19.9112C20.1109 9.13225 20.3002 9.04884 20.4376 8.906C20.575 8.76317 20.6492 8.57256 20.6441 8.37593C20.6433 8.28942 20.6282 8.20361 20.5992 8.12192Z" fill="#A80132"/>
<path d="M20.1456 2.03134C18.8002 1.644 17.4006 1.47045 15.9996 1.51722C14.5986 1.47045 13.199 1.644 11.8535 2.03134C13.2024 2.40128 14.5999 2.57047 15.9996 2.53326C17.3993 2.57047 18.7968 2.40128 20.1456 2.03134Z" fill="#C97C10"/>
<path d="M19.1783 7.6137H19.9112C20.1109 7.60798 20.3002 7.52457 20.4376 7.38173C20.575 7.2389 20.6492 7.04829 20.6441 6.85167C20.6433 6.76515 20.6282 6.67934 20.5992 6.59766C20.553 6.74261 20.4618 6.86963 20.3383 6.96078C20.2149 7.05194 20.0655 7.10262 19.9112 7.10568H12.0867C11.9324 7.10262 11.783 7.05194 11.6595 6.96078C11.5361 6.86963 11.4448 6.74261 11.3987 6.59766C11.3697 6.67934 11.3545 6.76515 11.3538 6.85167C11.3486 7.04829 11.4229 7.2389 11.5603 7.38173C11.6976 7.52457 11.8869 7.60798 12.0867 7.6137H19.1783Z" fill="#7D0126"/>
<path d="M18.6105 9.13713H19.9112C20.1109 9.13142 20.3002 9.04801 20.4376 8.90517C20.575 8.76233 20.6492 8.57173 20.6441 8.3751C20.6433 8.28859 20.6282 8.20278 20.5992 8.12109C20.553 8.26604 20.4618 8.39306 20.3383 8.48422C20.2149 8.57537 20.0655 8.62606 19.9112 8.62911H12.0867C11.9324 8.62606 11.783 8.57537 11.6595 8.48422C11.5361 8.39306 11.4448 8.26604 11.3987 8.12109C11.3697 8.20278 11.3545 8.28859 11.3538 8.3751C11.3486 8.57173 11.4229 8.76233 11.5603 8.90517C11.6976 9.04801 11.8869 9.13142 12.0867 9.13713H18.6105Z" fill="#7D0126"/>
<path d="M19.1785 6.09171H19.6121L20.168 4.4503C19.6843 4.85186 19.0727 5.07323 18.44 5.07567H16.1871C15.5378 5.07563 14.9063 4.86733 14.3881 4.48232C13.8699 4.0973 13.4933 3.55656 13.3153 2.94199L13.1367 2.32728C12.9901 2.30391 12.8503 2.27648 12.7161 2.25108L12.696 2.24905C12.2536 2.16647 11.8211 2.03878 11.4056 1.86803C11.3871 1.86041 11.3705 1.85228 11.354 1.84416C11.2967 1.81825 11.2431 1.79335 11.1935 1.76541C11.1739 1.75474 11.1543 1.74458 11.1357 1.73392C11.0908 1.70851 11.05 1.68311 11.0113 1.6567C10.9963 1.64654 10.9798 1.63638 10.9659 1.62622C10.9207 1.59367 10.8779 1.55802 10.8379 1.51953L12.3863 6.09171H19.1785Z" fill="#F09413"/>
<path d="M8.77508 20.8231C8.71197 18.4593 9.30345 16.123 10.4861 14.0647C11.6688 12.0064 13.3982 10.3036 15.4889 9.13867H13.3893C7.51572 11.4146 3.09766 20.7012 3.09766 24.3793C3.09766 28.5857 8.87314 31.9996 16.0009 31.9996C23.1286 31.9996 28.9041 28.5857 28.9041 24.3793C28.9041 28.9515 8.77508 30.4755 8.77508 20.8231Z" fill="#FF9C00"/>
<path d="M22.1918 4.05792C22.0897 4.0579 21.99 4.02809 21.9051 3.97227C21.8203 3.91644 21.7541 3.83711 21.7151 3.74429C21.676 3.65148 21.6658 3.54935 21.6857 3.45082C21.7056 3.35229 21.7547 3.26178 21.8269 3.19073L24.9237 0.142607C25.021 0.0500673 25.1514 -0.00113828 25.2867 1.92045e-05C25.422 0.00117669 25.5515 0.0546046 25.6472 0.148796C25.7429 0.242987 25.7972 0.370405 25.7983 0.503606C25.7995 0.636807 25.7475 0.765134 25.6535 0.860948L22.5567 3.90907C22.4599 4.00435 22.3287 4.05789 22.1918 4.05792Z" fill="#FFC608"/>
<path d="M22.1925 7.10761C22.0817 7.10774 21.9738 7.07276 21.8847 7.00784C21.7957 6.94292 21.7302 6.85151 21.698 6.74712C21.6658 6.64274 21.6686 6.53094 21.706 6.42824C21.7434 6.32555 21.8134 6.23743 21.9056 6.17692L28.0991 2.11275C28.1555 2.07573 28.2188 2.05 28.2853 2.03703C28.3518 2.02406 28.4202 2.02412 28.4867 2.03718C28.5531 2.05025 28.6164 2.07608 28.6727 2.11319C28.729 2.1503 28.7774 2.19797 28.815 2.25348C28.8526 2.30898 28.8788 2.37124 28.8919 2.43669C28.9051 2.50214 28.905 2.5695 28.8918 2.63493C28.8785 2.70036 28.8523 2.76258 28.8146 2.81803C28.7768 2.87348 28.7284 2.92107 28.672 2.9581L22.4785 7.02226C22.3938 7.07784 22.2943 7.10753 22.1925 7.10761Z" fill="#FFC608"/>
<path d="M9.80578 4.05792C9.6689 4.05789 9.53765 4.00435 9.44088 3.90907L6.3441 0.860948C6.25009 0.765134 6.19806 0.636807 6.19924 0.503606C6.20041 0.370405 6.25469 0.242987 6.35039 0.148796C6.44608 0.0546046 6.57554 0.00117669 6.71086 1.92045e-05C6.84619 -0.00113828 6.97657 0.0500673 7.07391 0.142607L10.1707 3.19073C10.2428 3.26178 10.292 3.35229 10.3119 3.45082C10.3318 3.54935 10.3216 3.65148 10.2825 3.74429C10.2435 3.83711 10.1773 3.91644 10.0925 3.97227C10.0076 4.02809 9.90784 4.0579 9.80578 4.05792Z" fill="#FFC608"/>
<path d="M9.80688 7.10761C9.70511 7.10753 9.60562 7.07784 9.52095 7.02226L3.3274 2.9581C3.21351 2.88332 3.13446 2.76708 3.10765 2.63493C3.09438 2.5695 3.09432 2.50214 3.1075 2.43669C3.12067 2.37124 3.14681 2.30898 3.18443 2.25348C3.22205 2.19797 3.2704 2.1503 3.32674 2.11319C3.38307 2.07608 3.44628 2.05025 3.51276 2.03718C3.64701 2.01079 3.78641 2.03798 3.9003 2.11276L10.0938 6.17692C10.1861 6.23743 10.256 6.32556 10.2934 6.42825C10.3308 6.53094 10.3336 6.64274 10.3014 6.74713C10.2692 6.85151 10.2037 6.94292 10.1147 7.00784C10.0256 7.07276 9.91771 7.10774 9.80688 7.10761Z" fill="#FFC608"/>
<path d="M18.0954 20.7775L16.5181 20.0012V15.743H17.5503V16.251H18.5826V15.235C18.5826 15.1003 18.5282 14.971 18.4314 14.8758C18.3346 14.7805 18.2033 14.727 18.0665 14.727H16.5181V13.7109H15.4858V14.727H15.1379C14.5186 14.7269 13.9175 14.9327 13.4318 15.3109C12.9462 15.6892 12.6045 16.2178 12.4622 16.811C12.3199 17.4043 12.3853 18.0275 12.6478 18.5796C12.9103 19.1317 13.3546 19.5804 13.9085 19.8529L15.4858 20.6292V24.8874H13.4213V24.3794H12.389V25.3954C12.389 25.5301 12.4434 25.6594 12.5402 25.7546C12.637 25.8499 12.7683 25.9034 12.9052 25.9034H15.4858V26.9195H16.5181V25.9034H16.8659C17.4852 25.9035 18.0864 25.6977 18.5721 25.3195C19.0577 24.9412 19.3994 24.4126 19.5417 23.8194C19.684 23.2261 19.6185 22.6029 19.356 22.0508C19.0935 21.4987 18.6493 21.05 18.0954 20.7775ZM14.3699 18.9435C14.0243 18.7732 13.7472 18.493 13.5834 18.1483C13.4197 17.8036 13.379 17.4146 13.4679 17.0443C13.5567 16.674 13.77 16.344 14.0731 16.1079C14.3762 15.8717 14.7514 15.7432 15.1379 15.743H15.4858V19.4932L14.3699 18.9435ZM16.8659 24.8874H16.5181V21.1372L17.6339 21.6869C17.9796 21.8572 18.2567 22.1374 18.4204 22.4821C18.5842 22.8268 18.6249 23.2158 18.536 23.5861C18.4472 23.9564 18.2339 24.2864 17.9308 24.5225C17.6277 24.7587 17.2525 24.8872 16.8659 24.8874Z" fill="#FFDF75"/>
<path d="M16.5176 25.9037V26.395C16.9096 26.3716 17.2919 26.2652 17.6384 26.0831C17.9849 25.901 18.2874 25.6475 18.5253 25.3398C18.0506 25.7032 17.4669 25.9015 16.8654 25.9037H16.5176Z" fill="#FFAA00"/>
<path d="M15.4859 25.9028H12.9053C12.7684 25.9028 12.6371 25.8492 12.5403 25.754C12.4436 25.6587 12.3892 25.5295 12.3892 25.3947V24.8867H11.873V25.9028C11.873 26.0375 11.9274 26.1667 12.0242 26.262C12.121 26.3573 12.2523 26.4108 12.3892 26.4108H14.9698V27.4268H16.0021V26.9188H15.4859V25.9028Z" fill="#FFAA00"/>
<path d="M17.5498 15.7422H16.5176V16.2502H17.0337V16.7582H18.066V16.2502H17.5498V15.7422Z" fill="#FFAA00"/>
<path d="M15.4868 14.7268V14.2188H14.9707V14.7435C15.0275 14.74 15.0812 14.7268 15.139 14.7268H15.4868Z" fill="#FFAA00"/>
<path d="M15.4859 20.6291L13.9086 19.8528C13.546 19.6764 13.2278 19.4229 12.9769 19.1105C12.7261 18.7982 12.549 18.4349 12.4584 18.0468C12.3678 17.6588 12.366 17.2558 12.4531 16.867C12.5402 16.4782 12.7141 16.1133 12.9621 15.7988C12.5896 16.0752 12.2951 16.4406 12.1065 16.8606C11.918 17.2805 11.8416 17.7409 11.8848 18.198C11.9279 18.6551 12.0891 19.0938 12.353 19.4724C12.6169 19.8509 12.9747 20.1568 13.3925 20.3608L14.9698 21.1371V24.8873H15.4859V20.6291Z" fill="#FFAA00"/>
<path d="M13.6973 16.521C13.9727 16.3448 14.2941 16.2507 14.6227 16.2502H14.9706V19.2384L15.4867 19.4924V15.7422H15.1388C14.8515 15.7427 14.5689 15.8143 14.317 15.9504C14.0651 16.0865 13.852 16.2827 13.6973 16.521Z" fill="#FFAA00"/>
<path d="M18.5821 23.1972C18.5831 22.8833 18.4948 22.5754 18.3271 22.3084C18.1595 22.0414 17.9192 21.8259 17.6334 21.6864L16.5176 21.1367V21.8987L17.1173 22.1939C17.3328 22.2997 17.5232 22.4491 17.676 22.6323C17.8288 22.8155 17.9405 23.0284 18.0039 23.2571C18.0672 23.4858 18.0808 23.7251 18.0436 23.9593C18.0065 24.1935 17.9195 24.4174 17.7883 24.6161C18.0309 24.4641 18.2307 24.2545 18.3694 24.0066C18.5082 23.7586 18.5813 23.4803 18.5821 23.1972Z" fill="#FFAA00"/>
<path d="M20.646 28.9508V20.8225C20.6457 20.605 20.6877 20.3894 20.7699 20.1875C19.7377 20.7412 19.0977 21.5033 19.0977 22.3466V30.4749C19.1079 30.9247 19.2756 31.3572 19.5725 31.6992C20.471 31.5532 21.3563 31.3375 22.2202 31.054C21.2448 30.5105 20.646 29.7688 20.646 28.9508Z" fill="#FF9C00"/>
<path d="M19.2009 21.7695C19.1333 21.9547 19.0984 22.1499 19.0977 22.3466V24.7638C19.4142 24.3309 19.5931 23.8152 19.6115 23.2821C19.6298 22.749 19.4869 22.2226 19.2009 21.7695Z" fill="#FFC052"/>
<path d="M31.9994 26.918V28.95C31.9994 30.6316 29.46 31.9982 26.322 31.9982C23.1839 31.9982 20.6445 30.6316 20.6445 28.95V26.918C20.6445 28.5995 23.1839 29.9661 26.322 29.9661C29.46 29.9661 31.9994 28.5995 31.9994 26.918Z" fill="#FFCB52"/>
<path d="M31.9994 22.8555V24.8875C31.9994 26.5691 29.46 27.9357 26.322 27.9357C23.1839 27.9357 20.6445 26.5691 20.6445 24.8875V22.8555C20.6445 24.537 23.1839 25.9036 26.322 25.9036C29.46 25.9036 31.9994 24.537 31.9994 22.8555Z" fill="#FFCB52"/>
<path d="M31.9994 24.8867V26.9188C31.9994 28.6003 29.46 29.9669 26.322 29.9669C23.1839 29.9669 20.6445 28.6003 20.6445 26.9188V24.8867C20.6445 26.5683 23.1839 27.9348 26.322 27.9348C29.46 27.9348 31.9994 26.5683 31.9994 24.8867Z" fill="#F09413"/>
<path d="M31.9994 20.8242V22.8563C31.9994 24.5378 29.46 25.9044 26.322 25.9044C23.1839 25.9044 20.6445 24.5378 20.6445 22.8563V20.8242C20.6445 22.5058 23.1839 23.8723 26.322 23.8723C29.46 23.8723 31.9994 22.5058 31.9994 20.8242Z" fill="#F09413"/>
<path d="M31.9994 20.8216C31.9994 22.5031 29.46 23.8697 26.322 23.8697C23.1839 23.8697 20.6445 22.5031 20.6445 20.8216C20.6445 19.14 23.1839 17.7734 26.322 17.7734C29.46 17.7734 31.9994 19.14 31.9994 20.8216ZM29.9349 20.8216C29.9349 19.9782 28.3194 19.2975 26.322 19.2975C24.3245 19.2975 22.709 19.9782 22.709 20.8216C22.709 21.6649 24.3245 22.3456 26.322 22.3456C28.3194 22.3456 29.9349 21.6649 29.9349 20.8216Z" fill="#FFC052"/>
<path d="M26.3238 22.3469C28.3192 22.3469 29.9367 21.6646 29.9367 20.8229C29.9367 19.9812 28.3192 19.2988 26.3238 19.2988C24.3285 19.2988 22.7109 19.9812 22.7109 20.8229C22.7109 21.6646 24.3285 22.3469 26.3238 22.3469Z" fill="#FFDF75"/>
<path d="M29.9368 20.8229C29.9376 20.9102 29.92 20.9967 29.8852 21.0769C29.6013 20.3555 28.1148 19.8068 26.3239 19.8068C24.5329 19.8068 23.0464 20.3555 22.7626 21.0769C22.7277 20.9967 22.7101 20.9102 22.711 20.8229C22.711 19.9796 24.3265 19.2988 26.3239 19.2988C28.3213 19.2988 29.9368 19.9796 29.9368 20.8229Z" fill="#C97C10"/>
<path d="M31.9994 21.8403V22.8563C31.9994 24.5378 29.46 25.9044 26.322 25.9044C25.0815 25.9226 23.851 25.6856 22.709 25.2084C21.4497 24.6496 20.6445 23.8012 20.6445 22.8563V20.8242C20.6445 21.7691 21.4497 22.6175 22.709 23.1764C22.7075 23.4905 22.8106 23.7966 23.0026 24.0475C23.1947 24.2985 23.465 24.4805 23.7723 24.5658C24.6039 24.7841 25.4613 24.8925 26.322 24.8884C29.46 24.8884 31.9994 23.5218 31.9994 21.8403Z" fill="#DE8800"/>
<path d="M31.9994 23.8715V24.8875C31.9994 26.5691 29.46 27.9357 26.322 27.9357C25.0815 27.9539 23.851 27.7168 22.709 27.2397C21.4497 26.6809 20.6445 25.8325 20.6445 24.8875V22.8555C20.6445 23.8004 21.4497 24.6488 22.709 25.2076C22.7075 25.5218 22.8106 25.8278 23.0026 26.0788C23.1947 26.3297 23.465 26.5118 23.7723 26.597C24.6039 26.8153 25.4613 26.9238 26.322 26.9196C29.46 26.9196 31.9994 25.5531 31.9994 23.8715Z" fill="#DE8800"/>
<path d="M31.9994 25.9028V26.9188C31.9994 28.6003 29.46 29.9669 26.322 29.9669C25.0815 29.9851 23.851 29.7481 22.709 29.2709C21.4497 28.7121 20.6445 27.8637 20.6445 26.9188V24.8867C20.6445 25.8316 21.4497 26.68 22.709 27.2389C22.7075 27.553 22.8106 27.8591 23.0026 28.11C23.1947 28.361 23.465 28.543 23.7723 28.6283C24.6039 28.8466 25.4613 28.955 26.322 28.9509C29.46 28.9509 31.9994 27.5843 31.9994 25.9028Z" fill="#DE8800"/>
<path d="M31.9994 27.934V28.95C31.9994 30.6316 29.46 31.9982 26.322 31.9982C25.0815 32.0164 23.851 31.7793 22.709 31.3022C21.4497 30.7434 20.6445 29.895 20.6445 28.95V26.918C20.6445 27.8629 21.4497 28.7113 22.709 29.2701C22.7075 29.5843 22.8106 29.8903 23.0026 30.1413C23.1947 30.3922 23.465 30.5743 23.7723 30.6595C24.6039 30.8778 25.4613 30.9863 26.322 30.9821C29.46 30.9821 31.9994 29.6156 31.9994 27.934Z" fill="#DE8800"/>
</svg>
