<svg width="44" height="32" viewBox="0 0 44 32" fill="none" xmlns="http://www.w3.org/2000/svg">
<path d="M23.5969 29.1053L24.1128 29.6212C24.7724 30.2808 25.8418 30.2808 26.5014 29.6212C27.161 28.9616 27.161 27.8922 26.5014 27.2327L27.3595 28.0908C28.0191 28.7504 29.0885 28.7504 29.7481 28.0908C30.4077 27.4312 30.4077 26.3618 29.7481 25.7022L30.4985 26.4526C31.1725 27.1266 32.2746 27.1119 32.9299 26.4083C33.554 25.7381 33.5061 24.683 32.8585 24.0354L24.7453 15.9222C25.4193 16.5963 26.5213 16.5815 27.1766 15.8779C27.8008 15.2077 27.7528 14.1526 27.1052 13.505L23.3897 9.78961C22.3229 8.72274 20.7486 8.34289 19.3126 8.8058L17.7281 9.31657C17.2094 9.48379 16.6407 9.34653 16.2554 8.9612L13.5579 6.26367L8.99917 8.31047L6.33203 13.4896L8.63831 15.7959C9.28634 16.4439 9.62575 17.3386 9.57055 18.2533C9.51256 19.2148 9.86928 20.155 10.5504 20.8361L21.1797 31.4653C21.8273 32.1129 22.8823 32.1608 23.5526 31.5367C24.2562 30.8814 24.271 29.7793 23.5969 29.1053Z" fill="#FED2A4"/>
<path d="M32.9317 26.408C32.7579 26.595 32.5527 26.7341 32.3318 26.8228C32.5814 26.2011 32.2659 25.6314 31.7651 25.1314L20.9128 14.2515L23.27 11.8587L23.1039 11.6926C22.0371 10.6257 20.4624 10.2458 19.0269 10.7092L17.4418 11.2196C16.9236 11.3874 16.3549 11.2501 15.9698 10.8648L12.4648 7.35992L13.5602 6.26367L16.2574 8.9617C16.6426 9.34687 17.2121 9.48429 17.7304 9.31648L19.3146 8.80613C20.7511 8.34356 22.3248 8.72265 23.3917 9.78952L27.1079 13.5049C27.7548 14.1526 27.8027 15.2082 27.1792 15.8786C26.5236 16.582 25.4219 16.5968 24.7473 15.9229L32.8605 24.0353C33.5082 24.6829 33.5561 25.7385 32.9317 26.408Z" fill="#FFBD86"/>
<path d="M30.5009 26.4521L29.7506 25.7017C30.081 26.0312 30.2453 26.4634 30.2453 26.8955C30.2453 27.2042 30.161 27.5138 29.9914 27.7851L25.2614 23.0542C25.0066 22.8002 25.0066 22.3872 25.2614 22.1325C25.5161 21.8777 25.9292 21.8777 26.1839 22.1325L30.5636 26.5121C30.5426 26.493 30.5218 26.473 30.5009 26.4521Z" fill="#FFBD86"/>
<path d="M26.9974 28.4264C26.9974 28.736 26.9131 29.0463 26.7417 29.3186L21.4274 24.0042C21.1726 23.7495 21.1726 23.3364 21.4274 23.0817C21.6821 22.8269 22.0952 22.8269 22.3499 23.0817L26.5426 27.2744C26.5495 27.2813 26.5565 27.2883 26.5626 27.2952C26.8531 27.6161 26.9974 28.0213 26.9974 28.4264Z" fill="#FFBD86"/>
<path d="M24.1136 29.6233L23.5971 29.1068C24.1597 29.6694 24.2431 30.5285 23.8458 31.1788C23.8092 31.1545 23.7745 31.1267 23.7423 31.0945L20.8512 28.2034C20.5965 27.9487 20.5965 27.5357 20.8512 27.2809C21.106 27.0262 21.5182 27.0262 21.7729 27.2809L24.1553 29.6633C24.1415 29.6502 24.1276 29.6372 24.1136 29.6233Z" fill="#FFBD86"/>
<path d="M11.7081 26.6374L13.7702 24.5753C14.3912 23.9543 14.3912 22.9474 13.7702 22.3263L13.7026 22.2587C13.0816 21.6377 12.0747 21.6377 11.4536 22.2587L9.39154 24.3208C8.77053 24.9418 8.77053 25.9487 9.39154 26.5698L9.45915 26.6374C10.0803 27.2584 11.0871 27.2584 11.7081 26.6374Z" fill="#EB9C8D"/>
<path d="M13.7384 24.6089L11.7437 26.6035C11.4237 26.9235 11.0046 27.0835 10.5856 27.0835C10.1665 27.0835 9.7474 26.9235 9.4274 26.6035C9.21696 26.3931 9.07608 26.1401 9.00391 25.8714C9.14302 25.9088 9.28651 25.928 9.43001 25.928C9.84996 25.928 10.2691 25.768 10.5881 25.448L12.5828 23.4542C13.0123 23.0246 13.1531 22.416 13.0062 21.8691C13.2749 21.9413 13.5278 22.0822 13.7383 22.2925C14.3775 22.9316 14.3775 23.969 13.7384 24.6089Z" fill="#D78878"/>
<path d="M14.5382 28.4245L16.6003 26.3624C17.2213 25.7414 17.2213 24.7345 16.6003 24.1135L16.5327 24.0458C15.9116 23.4248 14.9048 23.4248 14.2837 24.0458L12.2216 26.1079C11.6006 26.7289 11.6006 27.7358 12.2216 28.3569L12.2892 28.4245C12.9102 29.0455 13.9172 29.0455 14.5382 28.4245Z" fill="#EB9C8D"/>
<path d="M16.5617 26.3971L14.5679 28.3917C14.2479 28.7108 13.8288 28.8708 13.4089 28.8708C12.9898 28.8708 12.5707 28.7109 12.2507 28.3917C12.0402 28.1813 11.8994 27.9283 11.8281 27.6596C11.9672 27.6979 12.1116 27.717 12.2551 27.717C12.6742 27.717 13.0933 27.5571 13.4132 27.2371L15.4078 25.2424C15.8374 24.8138 15.9782 24.2051 15.8313 23.6582C16.0992 23.7295 16.3513 23.8713 16.5617 24.0808C17.2017 24.7198 17.2017 25.7572 16.5617 26.3971Z" fill="#D78878"/>
<path d="M17.6398 29.9382L19.7018 27.8761C20.3228 27.2551 20.3228 26.2482 19.7018 25.6271L19.6342 25.5595C19.0132 24.9385 18.0064 24.9385 17.3853 25.5595L15.3232 27.6216C14.7022 28.2426 14.7022 29.2495 15.3232 29.8706L15.3908 29.9382C16.0119 30.5592 17.0187 30.5592 17.6398 29.9382Z" fill="#EB9C8D"/>
<path d="M19.6633 27.9088L17.6687 29.9034C17.3487 30.2234 16.9296 30.3834 16.5105 30.3834C16.0914 30.3834 15.6723 30.2234 15.3522 29.9034C15.1418 29.693 15.0009 29.44 14.9297 29.1713C15.0688 29.2096 15.2123 29.2287 15.3557 29.2287C15.7757 29.2287 16.1948 29.0688 16.5148 28.7488L18.5094 26.7541C18.938 26.3255 19.0798 25.7168 18.9311 25.1699C19.1998 25.2412 19.4528 25.382 19.6632 25.5925C20.3032 26.2316 20.3032 27.2688 19.6633 27.9088Z" fill="#D78878"/>
<path d="M20.6534 31.5339L22.7155 29.4718C23.3365 28.8508 23.3365 27.8439 22.7155 27.2228L22.6479 27.1552C22.0269 26.5342 21.02 26.5342 20.3989 27.1552L18.3369 29.2173C17.7158 29.8383 17.7158 30.8452 18.3369 31.4663L18.4045 31.5339C19.0256 32.1549 20.0324 32.1549 20.6534 31.5339Z" fill="#EB9C8D"/>
<path d="M22.6835 29.5052L20.6889 31.4998C20.3689 31.8198 19.9498 31.979 19.5307 31.979C19.1116 31.979 18.6925 31.8198 18.3725 31.4998C18.1525 31.2799 18.0082 31.012 17.9395 30.7304C18.0673 30.7617 18.1977 30.7773 18.329 30.7773C18.7481 30.7773 19.1672 30.6173 19.4872 30.2973L21.4818 28.3035C21.9018 27.8836 22.0461 27.2931 21.9149 26.7559C22.1966 26.8246 22.4635 26.9689 22.6835 27.188C23.3234 27.828 23.3234 28.8653 22.6835 29.5052Z" fill="#D78878"/>
<path d="M36.9787 13.4661L34.3733 8.31329L29.7529 6.24023L27.029 8.9641C26.6437 9.34943 26.075 9.48669 25.5563 9.31947L23.9718 8.8087C23.964 8.80616 23.9561 8.80363 23.9483 8.80118C22.8429 8.45231 21.6345 8.748 20.7874 9.53927L16.6187 13.4227C15.9102 14.0826 15.8905 15.1985 16.5751 15.8832C17.2248 16.5329 18.2718 16.5531 18.9461 15.9288L20.8734 14.1444C20.8734 14.1444 22.2574 15.089 23.4465 14.624L31.1977 22.3754L32.734 20.8391C33.4151 20.1579 33.7717 19.2177 33.7138 18.2562C33.6586 17.3414 33.998 16.4468 34.646 15.7987L36.9787 13.4661Z" fill="#EB9C8D"/>
<path d="M34.647 15.7956C33.9984 16.4433 33.6592 17.338 33.714 18.2528C33.7722 19.2145 33.4158 20.1552 32.7349 20.8361L31.1985 22.3725L30.0117 21.1856L31.235 20.0119C31.921 19.3259 32.0992 18.8972 32.0409 17.9295C31.9853 17.0078 32.2691 15.5376 32.9221 14.8846L35.6493 12.1582L36.9788 13.4627L34.647 15.7956Z" fill="#D78878"/>
<path d="M43.0622 9.05125L38.1938 13.9196C37.965 14.1484 37.594 14.1484 37.3652 13.9196L29.3142 5.86862C29.0854 5.63978 29.0854 5.26879 29.3142 5.03995L34.1825 0.171629C34.4114 -0.0572096 34.7824 -0.0572096 35.0112 0.171629L43.0622 8.22259C43.291 8.45143 43.291 8.82242 43.0622 9.05125Z" fill="#7ACAA6"/>
<path d="M43.0463 9.06457L38.2032 13.9085C37.9677 14.1441 37.585 14.1441 37.3494 13.9085L35.9629 12.5211C36.1985 12.7568 36.5803 12.7568 36.8159 12.5211L41.6598 7.67804C41.8954 7.44245 41.8954 7.05981 41.6598 6.82422L43.0463 8.21067C43.282 8.44728 43.282 8.8289 43.0463 9.06457Z" fill="#57BE92"/>
<path d="M0.171629 9.05125L5.03995 13.9196C5.26879 14.1484 5.63978 14.1484 5.86862 13.9196L13.9196 5.86862C14.1484 5.63978 14.1484 5.26879 13.9196 5.03995L9.05125 0.171629C8.82242 -0.0572096 8.45143 -0.0572096 8.22259 0.171629L0.171629 8.22259C-0.0572096 8.45143 -0.0572096 8.82242 0.171629 9.05125Z" fill="#528FD8"/>
<path d="M13.9066 5.88147L12.6599 7.12823C12.8955 6.89255 12.8955 6.51084 12.6599 6.27441L7.81671 1.43132C7.58112 1.19565 7.19848 1.19565 6.96289 1.43132L8.20964 0.184569C8.44616 -0.0511064 8.82787 -0.0511064 9.06346 0.184569L13.9065 5.02766C14.1432 5.26325 14.1432 5.64588 13.9066 5.88147Z" fill="#0573CE"/>
</svg>
