<svg width="12" height="14" viewBox="0 0 12 14" fill="none" xmlns="http://www.w3.org/2000/svg">
<path d="M2.978e-08 1.00021V13.0002C-3.75705e-05 13.1337 0.0355311 13.2647 0.103036 13.3798C0.170541 13.4949 0.267538 13.5899 0.384018 13.6551C0.500499 13.7202 0.632245 13.753 0.765663 13.7503C0.899082 13.7475 1.02934 13.7091 1.143 13.6392L10.893 7.63921C11.0022 7.57211 11.0924 7.47814 11.1549 7.36628C11.2175 7.25441 11.2503 7.12838 11.2503 7.00021C11.2503 6.87204 11.2175 6.74601 11.1549 6.63415C11.0924 6.52228 11.0022 6.42831 10.893 6.36121L1.143 0.361211C1.02934 0.291285 0.899082 0.252951 0.765663 0.250164C0.632245 0.247377 0.500499 0.280238 0.384018 0.345357C0.267538 0.410476 0.170541 0.505494 0.103036 0.620609C0.0355311 0.735723 -3.75705e-05 0.866764 2.978e-08 1.00021Z" fill="white"/>
</svg>
