<svg width="21" height="20" viewBox="0 0 21 20" fill="none" xmlns="http://www.w3.org/2000/svg">
<path d="M2.80762 19.2593C2.80759 19.3566 2.82747 19.4529 2.86612 19.5428C2.90477 19.6327 2.96143 19.7144 3.03286 19.7832C3.1043 19.852 3.18911 19.9065 3.28245 19.9437C3.37579 19.9809 3.47582 20.0001 3.57685 20.0001H17.423C17.524 20.0001 17.6241 19.9809 17.7174 19.9437C17.8108 19.9065 17.8956 19.852 17.967 19.7832C18.0384 19.7144 18.0951 19.6327 18.1338 19.5428C18.1724 19.4529 18.1923 19.3566 18.1923 19.2593V17.0371H2.80762V19.2593Z" fill="white"/>
<path d="M20.1976 4.59634C20.083 4.51253 19.9464 4.46122 19.8031 4.44818C19.6598 4.43514 19.5156 4.4609 19.3867 4.52256L13.9807 7.12527L11.2144 0.465855C11.1573 0.328342 11.0587 0.210459 10.9314 0.127421C10.804 0.044383 10.6538 0 10.5 0C10.3462 0 10.1959 0.044383 10.0686 0.127421C9.94126 0.210459 9.84269 0.328342 9.7856 0.465855L7.01929 7.12527L1.61326 4.52256C1.48445 4.46052 1.34013 4.43455 1.19674 4.44761C1.05336 4.46067 0.916657 4.51224 0.802209 4.59644C0.687761 4.68064 0.600163 4.7941 0.549386 4.92388C0.49861 5.05367 0.486695 5.19458 0.514999 5.33057L2.63865 15.5555H18.3613L20.485 5.33057C20.5133 5.19455 20.5014 5.05361 20.4506 4.9238C20.3998 4.79399 20.3121 4.68053 20.1976 4.59634ZM10.5 12.5926C10.0433 12.5382 9.62686 12.3141 9.33942 11.9681C9.05198 11.6221 8.91637 11.1817 8.96153 10.7407C8.91636 10.2998 9.05197 9.8593 9.33941 9.51331C9.62685 9.16732 10.0433 8.94323 10.5 8.88887C10.9566 8.94322 11.3731 9.16731 11.6606 9.5133C11.948 9.85929 12.0836 10.2998 12.0385 10.7407C12.0836 11.1817 11.948 11.6221 11.6606 11.9681C11.3731 12.3141 10.9566 12.5382 10.5 12.5926Z" fill="white"/>
</svg>
