<svg width="16" height="14" viewBox="0 0 16 14" fill="none" xmlns="http://www.w3.org/2000/svg">
<path d="M9.92774 0.225318C9.82016 0.117737 9.68311 0.0444717 9.5339 0.0147859C9.38468 -0.0148998 9.23002 0.000327841 9.08946 0.0585433C8.94891 0.116759 8.82877 0.215347 8.74424 0.341841C8.65972 0.468336 8.6146 0.617054 8.6146 0.76919V3.46162C6.40503 3.48455 4.2936 4.3777 2.73831 5.94734C1.18301 7.51698 0.309282 9.63652 0.306641 11.8462V13.2307C0.306718 13.3958 0.359889 13.5565 0.458302 13.6891C0.556715 13.8217 0.695151 13.9191 0.853166 13.9669C0.925354 13.989 1.00043 14.0001 1.07591 14C1.20254 14 1.32721 13.9687 1.43885 13.9089C1.5505 13.8492 1.64567 13.7628 1.71594 13.6574C4.65441 9.24993 7.47229 8.93516 8.61454 9.02681V11.8462C8.61455 11.9983 8.65966 12.147 8.74419 12.2735C8.82872 12.4 8.94885 12.4986 9.08941 12.5568C9.22997 12.615 9.38463 12.6303 9.53384 12.6006C9.68305 12.5709 9.82011 12.4976 9.92768 12.39L15.4665 6.85117C15.538 6.77976 15.5947 6.69497 15.6333 6.60165C15.672 6.50832 15.6919 6.4083 15.6919 6.30728C15.6919 6.20626 15.672 6.10623 15.6333 6.01291C15.5947 5.91959 15.538 5.8348 15.4665 5.76338L9.92774 0.225318Z" fill="white"/>
</svg>
