<svg width="198" height="253" viewBox="0 0 198 253" fill="none" xmlns="http://www.w3.org/2000/svg">
<g opacity="0.1">
<path d="M132.867 60.2224C132.384 60.1814 131.918 60.1567 131.452 60.1321H130.749C129.58 60.0829 128.443 60.0583 127.307 60.0583C126.17 60.0583 125.009 60.1076 123.848 60.1486C54.7662 62.6987 0.295341 106.887 2.20861 158.906C3.23883 187.039 20.5809 211.704 47.2276 227.98C20.4174 250.357 -6.73633 259.139 -25.7464 248.48C-58.5663 230.022 -54.6253 160.448 -16.9568 93.0868C20.7117 25.7261 77.889 -13.9359 110.676 4.52984C126.408 13.3117 133.684 33.8357 132.867 60.2224Z" fill="#963ADD"/>
<path d="M197.843 184.139C195.775 214.757 137.036 272.704 51.053 230.188L50.9467 230.131C49.6712 229.418 48.412 228.68 47.1855 227.917C61.1671 216.257 75.0588 200.858 87.634 182.679C96.022 184.624 104.632 185.429 113.234 185.074C128.606 184.508 142.465 180.605 152.693 174.685C152.824 174.603 152.955 174.537 153.086 174.447C171.139 164.304 184.05 142.714 184.05 142.714C184.05 142.714 199.756 155.866 197.843 184.139Z" fill="#963ADD"/>
<path d="M120.752 118.706C115.603 132.939 109.292 146.72 101.881 159.91C97.4002 167.929 92.6416 175.547 87.6704 182.73C67.998 178.064 54.1473 167.15 53.673 154.031C53.0026 135.655 78.5864 119.797 110.826 118.6C112.535 118.534 114.211 118.51 115.879 118.534H116.304C117.8 118.567 119.288 118.633 120.752 118.706Z" fill="#963ADD"/>
<path d="M192.382 109.594C192.47 112.093 192.377 114.595 192.104 117.08C192.014 117.966 191.891 118.868 191.736 119.778C190.368 127.78 187.781 135.523 184.067 142.737C168.695 125.518 144.002 119.327 120.773 118.581C128.263 97.6877 132.318 77.6804 132.842 60.2231C133.251 60.2231 133.659 60.2887 134.117 60.3297C135.834 60.4828 137.565 60.6905 139.309 60.9529C140.192 61.0759 141.059 61.2235 141.934 61.3875L142.915 61.5679L143.798 61.7565C144.199 61.8303 144.616 61.9205 145 62.0107C145.384 62.1009 145.58 62.1419 145.867 62.2075C147.052 62.4781 148.23 62.7896 149.407 63.1094L150.077 63.3062C151.713 63.7736 153.348 64.2902 154.934 64.8642C155.842 65.184 156.749 65.5202 157.649 65.8892C158.548 66.2581 159.284 66.5369 160.012 66.8813C160.429 67.0535 160.829 67.2339 161.238 67.4307C161.647 67.6275 162.007 67.7751 162.391 67.9719C162.775 68.1687 163.258 68.3901 163.699 68.6197C164.141 68.8492 164.517 69.0214 164.901 69.2428C165.286 69.4642 165.572 69.5954 165.891 69.7758C171.444 72.7605 176.471 76.6385 180.772 81.2554C181.066 81.5834 181.36 81.9032 181.646 82.2394C182.513 83.2398 183.282 84.2647 184.099 85.3307C184.361 85.6751 184.614 86.0359 184.868 86.4049C186.113 88.2338 187.223 90.1522 188.187 92.1447C188.317 92.3918 188.432 92.6464 188.531 92.9072C188.972 93.8666 189.389 94.8506 189.749 95.8591C189.839 96.0723 189.905 96.2937 189.978 96.4987C190.052 96.7037 190.133 96.9251 190.199 97.1465C190.264 97.3679 190.42 97.8189 190.526 98.1715C191.507 101.439 192.108 104.81 192.317 108.216C192.349 108.659 192.374 109.126 192.382 109.594Z" fill="#963ADD"/>
</g>
</svg>
