<svg width="174" height="253" viewBox="0 0 174 253" fill="none" xmlns="http://www.w3.org/2000/svg">
<g opacity="0.1">
<path d="M180.867 60.2224C180.384 60.1814 179.918 60.1567 179.452 60.1321H178.749C177.58 60.0829 176.443 60.0583 175.307 60.0583C174.17 60.0583 173.009 60.1076 171.848 60.1486C102.766 62.6987 48.2953 106.887 50.2086 158.906C51.2388 187.039 68.5809 211.704 95.2276 227.98C68.4174 250.357 41.2637 259.139 22.2536 248.48C-10.5663 230.022 -6.62527 160.448 31.0432 93.0868C68.7117 25.7261 125.889 -13.9359 158.676 4.52984C174.408 13.3117 181.684 33.8357 180.867 60.2224Z" fill="#963ADD"/>
<path d="M245.843 184.139C243.775 214.757 185.036 272.704 99.053 230.188L98.9467 230.131C97.6712 229.418 96.412 228.68 95.1855 227.917C109.167 216.257 123.059 200.858 135.634 182.679C144.022 184.624 152.632 185.429 161.234 185.074C176.606 184.508 190.465 180.605 200.693 174.685C200.824 174.603 200.955 174.537 201.086 174.447C219.139 164.304 232.05 142.714 232.05 142.714C232.05 142.714 247.756 155.866 245.843 184.139Z" fill="#963ADD"/>
<path d="M168.752 118.706C163.603 132.939 157.292 146.72 149.881 159.91C145.4 167.929 140.642 175.547 135.67 182.73C115.998 178.064 102.147 167.15 101.673 154.031C101.003 135.655 126.586 119.797 158.826 118.6C160.535 118.534 162.211 118.51 163.879 118.534H164.304C165.8 118.567 167.288 118.633 168.752 118.706Z" fill="#963ADD"/>
<path d="M240.382 109.594C240.47 112.092 240.377 114.594 240.104 117.08C240.014 117.965 239.891 118.867 239.736 119.778C238.368 127.78 235.781 135.523 232.067 142.737C216.695 125.517 192.002 119.327 168.773 118.58C176.263 97.6876 180.318 77.6802 180.842 60.223C181.251 60.223 181.659 60.2886 182.117 60.3296C183.834 60.4827 185.565 60.6904 187.309 60.9528C188.192 61.0758 189.059 61.2234 189.934 61.3874L190.915 61.5678L191.798 61.7564C192.199 61.8302 192.616 61.9204 193 62.0106C193.384 62.1008 193.58 62.1418 193.867 62.2074C195.052 62.478 196.23 62.7895 197.407 63.1093L198.077 63.3061C199.713 63.7735 201.348 64.2901 202.934 64.8641C203.842 65.1839 204.749 65.52 205.649 65.889C206.548 66.258 207.284 66.5368 208.012 66.8812C208.429 67.0534 208.829 67.2338 209.238 67.4306C209.647 67.6274 210.007 67.775 210.391 67.9718C210.775 68.1686 211.258 68.3899 211.699 68.6195C212.141 68.8491 212.517 69.0213 212.901 69.2427C213.286 69.4641 213.572 69.5953 213.891 69.7757C219.444 72.7604 224.471 76.6384 228.772 81.2553C229.066 81.5833 229.36 81.9031 229.646 82.2393C230.513 83.2396 231.282 84.2646 232.099 85.3306C232.361 85.675 232.614 86.0357 232.868 86.4047C234.113 88.2337 235.223 90.1521 236.187 92.1445C236.317 92.3917 236.432 92.6463 236.531 92.9071C236.972 93.8665 237.389 94.8504 237.749 95.859C237.839 96.0722 237.905 96.2936 237.978 96.4986C238.052 96.7036 238.133 96.925 238.199 97.1464C238.264 97.3678 238.42 97.8187 238.526 98.1713C239.507 101.439 240.108 104.81 240.317 108.216C240.349 108.659 240.374 109.126 240.382 109.594Z" fill="#963ADD"/>
</g>
</svg>
