<svg width="876" height="1125" viewBox="0 0 876 1125" fill="none" xmlns="http://www.w3.org/2000/svg">
<path d="M757.092 267.796C755.073 267.614 753.122 267.504 751.171 267.395H748.227C743.333 267.176 738.576 267.067 733.818 267.067C729.061 267.067 724.201 267.285 719.341 267.468C430.17 278.808 202.16 475.303 210.169 706.621C214.481 831.723 287.073 941.402 398.614 1013.78C286.389 1113.29 172.726 1152.34 93.1516 1104.94C-44.2295 1022.86 -27.7328 713.476 129.944 413.937C287.621 114.398 526.96 -61.9701 664.204 20.1432C730.054 59.1944 760.514 150.46 757.092 267.796Z" fill="#963ADD"/>
<path d="M1029.08 818.826C1020.42 954.976 774.541 1212.66 414.626 1023.6L414.181 1023.34C408.842 1020.17 403.571 1016.89 398.438 1013.5C456.963 961.649 515.112 893.173 567.751 812.335C602.862 820.981 638.905 824.562 674.911 822.982C739.255 820.466 797.267 803.11 840.083 776.785C840.631 776.42 841.178 776.128 841.726 775.727C917.296 730.623 971.338 634.618 971.338 634.618C971.338 634.618 1037.09 693.103 1029.08 818.826Z" fill="#963ADD"/>
<path d="M706.377 527.862C684.825 591.149 658.405 652.432 627.385 711.085C608.629 746.745 588.71 780.619 567.901 812.56C485.554 791.813 427.576 743.282 425.591 684.942C422.785 603.23 529.876 532.711 664.827 527.388C671.98 527.096 678.997 526.987 685.979 527.096H687.758C694.021 527.242 700.25 527.534 706.377 527.862Z" fill="#963ADD"/>
<path d="M1006.22 487.339C1006.59 498.451 1006.2 509.577 1005.05 520.629C1004.68 524.567 1004.16 528.578 1003.51 532.625C997.787 568.209 986.959 602.642 971.41 634.72C907.066 558.149 803.705 530.62 706.471 527.302C737.821 434.396 754.797 345.427 756.987 267.799C758.699 267.799 760.41 268.091 762.327 268.273C769.514 268.953 776.758 269.877 784.06 271.044C787.756 271.591 791.384 272.247 795.046 272.977L799.153 273.779L802.85 274.617C804.527 274.945 806.272 275.347 807.881 275.748C809.489 276.149 810.311 276.331 811.508 276.623C816.471 277.826 821.4 279.212 826.328 280.634L829.135 281.509C835.98 283.587 842.825 285.884 849.465 288.437C853.264 289.859 857.063 291.354 860.828 292.994C864.592 294.635 867.673 295.875 870.719 297.406C872.464 298.172 874.141 298.974 875.853 299.849C877.564 300.724 879.07 301.381 880.678 302.256C882.287 303.131 884.306 304.115 886.154 305.136C888.003 306.157 889.577 306.923 891.186 307.907C892.794 308.892 893.992 309.475 895.327 310.278C918.571 323.55 939.614 340.794 957.617 361.325C958.849 362.783 960.081 364.205 961.279 365.7C964.907 370.149 968.124 374.707 971.547 379.447C972.642 380.978 973.703 382.582 974.764 384.223C979.978 392.356 984.622 400.887 988.66 409.747C989.202 410.846 989.682 411.978 990.097 413.138C991.945 417.404 993.691 421.78 995.197 426.264C995.573 427.212 995.847 428.197 996.155 429.108C996.463 430.02 996.805 431.005 997.079 431.989C997.353 432.973 998.003 434.979 998.448 436.547C1002.55 451.078 1005.07 466.066 1005.94 481.213C1006.08 483.182 1006.18 485.261 1006.22 487.339Z" fill="#963ADD"/>
</svg>
