<svg width="61" height="56" viewBox="0 0 61 56" fill="none" xmlns="http://www.w3.org/2000/svg">
    <path
        d="M30.2476 32.5497H35.9505C36.4644 33.1363 37.0396 33.6677 37.6681 34.1318C34.4781 34.1839 31.4911 35.4704 29.2385 37.7737C27.0029 40.0596 25.6694 43.1427 25.4836 46.4546L25.3778 48.3255H13.476L13.7838 42.8906C14.1186 36.9953 18.5392 32.5497 24.0668 32.5497H30.2476ZM44.0498 34.1267C48.8234 34.1267 52.7071 30.2431 52.7071 25.4695C52.7071 20.6959 48.8234 16.808 44.0498 16.808C39.2762 16.808 35.3883 20.6935 35.3883 25.4695C35.3883 30.2455 39.2738 34.1267 44.0498 34.1267ZM4.98382 35.1238C5.14171 35.1238 5.30261 35.0892 5.45299 35.014C5.93869 34.7719 6.16125 34.202 5.96726 33.6952C3.68459 27.7344 5.29209 19.1135 16.4303 12.4896L17.3716 14.1452C17.5566 14.4685 17.8979 14.6715 18.2708 14.676C18.6422 14.6775 18.9911 14.491 19.1851 14.1722L26.4451 2.29273C26.6391 1.97544 26.6511 1.57996 26.4767 1.25064C26.3023 0.922829 25.9669 0.710802 25.5955 0.692757L11.2018 0.00705397C10.8183 -0.0139983 10.4559 0.179983 10.2544 0.506294C10.0529 0.834108 10.0469 1.24463 10.2364 1.57846L11.3867 3.60549C5.50863 7.25506 1.86207 11.8099 0.541787 17.1556C-0.823605 22.6804 0.403443 28.7224 4.0906 34.6291C4.2891 34.9463 4.63195 35.1238 4.98382 35.1238ZM60.5093 46.5734C60.1786 40.6778 55.7579 36.2325 50.2263 36.2325H37.869C32.3374 36.2325 27.9167 40.6778 27.5862 46.5728L27.2782 52.0125H60.8171L60.5093 46.5734ZM21.5861 21.7825C21.5861 26.5585 25.4716 30.444 30.2476 30.444C31.6255 30.444 32.9285 30.1191 34.0862 29.5442C33.5697 28.2864 33.2826 26.9113 33.2826 25.4697C33.2826 22.0199 34.9152 18.9461 37.4463 16.9743C35.8907 14.6552 33.2449 13.1253 30.2476 13.1253C25.4716 13.1253 21.5861 17.0089 21.5861 21.7825ZM35.639 68.0332C29.6767 70.3128 21.0557 68.7038 14.4333 57.5702L16.0889 56.6273C16.4122 56.4424 16.6137 56.101 16.6197 55.7281C16.6257 55.3567 16.4348 55.0078 16.116 54.8138L4.23646 47.5553C3.91918 47.3613 3.52369 47.3493 3.19438 47.5237C2.86656 47.6967 2.65303 48.032 2.63649 48.4034L1.94928 62.7942C1.93124 63.1761 2.12372 63.54 2.45003 63.74C2.77634 63.9415 3.18686 63.949 3.52069 63.7596L5.54772 62.6107C9.2003 68.4918 13.7566 72.1384 19.1024 73.4587C20.567 73.8196 22.0663 74 23.591 74C27.818 74 32.2315 72.6181 36.5728 69.9098C37.0329 69.6226 37.1983 69.0332 36.9577 68.5475C36.7156 68.0618 36.1457 67.8392 35.639 68.0332ZM70.2068 39.3705C69.9196 38.9103 69.3302 38.7434 68.8445 38.9855C68.3603 39.2276 68.1362 39.7975 68.3302 40.3043C70.6113 46.2681 69.0038 54.8875 57.8672 61.5055L56.9243 59.8544C56.7409 59.5311 56.398 59.3281 56.0266 59.3235H56.0101C55.6447 59.3235 55.3033 59.513 55.1123 59.8273L47.8523 71.7068C47.6583 72.0241 47.6463 72.4196 47.8207 72.7489C47.9952 73.0767 48.3305 73.2887 48.7019 73.3068L63.0912 73.994C63.1092 73.994 63.1257 73.9955 63.1423 73.9955C63.5062 73.994 63.846 73.806 64.0385 73.4932C64.24 73.1669 64.2475 72.7564 64.0581 72.4226L62.9062 70.391C68.7843 66.7415 72.4324 62.1867 73.7542 56.8424C75.1195 51.3192 73.8925 45.2772 70.2068 39.3705ZM38.66 5.96636C44.6193 3.68369 53.2387 5.28817 59.8596 16.4263L58.2085 17.3677C57.8852 17.5526 57.6822 17.894 57.6777 18.2669C57.6717 18.6398 57.8627 18.9872 58.1815 19.1812L70.061 26.4442C70.2294 26.548 70.4189 26.5991 70.6098 26.5991C70.7783 26.5991 70.9482 26.5585 71.1031 26.4773C71.4309 26.3029 71.6444 25.9675 71.6609 25.5961L72.3482 11.2024C72.3662 10.8189 72.1737 10.455 71.8474 10.255C71.5211 10.0535 71.1106 10.046 70.7768 10.2355L68.7452 11.3873C65.0941 5.50922 60.5393 1.86116 55.1935 0.54088C49.6688 -0.823008 43.6283 0.40404 37.7246 4.0912C37.2645 4.37841 37.0991 4.96788 37.3397 5.45358C37.5818 5.93929 38.1532 6.16034 38.66 5.96636Z"
        fill="white" fill-opacity="0.3" />
</svg>
