<svg width="73" height="80" viewBox="0 0 73 80" fill="none" xmlns="http://www.w3.org/2000/svg">
<path fill-rule="evenodd" clip-rule="evenodd" d="M22.7652 0.200362C20.2413 -0.700083 17.7012 1.5474 17.7012 4.68093V92.756H31.469V76.3834C31.469 73.7998 33.2301 71.7055 35.4027 71.7055H43.27C45.4426 71.7055 47.2037 73.7998 47.2037 76.3834V92.756H60.9715V17.3112C60.9715 15.2454 59.832 13.4242 58.168 12.8306L22.7652 0.200362ZM31.469 27.2657C30.3828 27.2657 29.5022 28.3129 29.5022 29.6046V34.2825C29.5022 35.5742 30.3828 36.6214 31.469 36.6214H35.4027C36.4888 36.6214 37.3695 35.5742 37.3695 34.2825V29.6046C37.3695 28.3129 36.4888 27.2657 35.4027 27.2657H31.469ZM29.5022 43.6383C29.5022 42.3467 30.3828 41.2993 31.469 41.2993H35.4027C36.4888 41.2993 37.3695 42.3467 37.3695 43.6383V48.3161C37.3695 49.6077 36.4888 50.6551 35.4027 50.6551H31.469C30.3828 50.6551 29.5022 49.6077 29.5022 48.3161V43.6383ZM31.469 55.333C30.3828 55.333 29.5022 56.3803 29.5022 57.6719V62.3498C29.5022 63.6413 30.3828 64.6887 31.469 64.6887H35.4027C36.4888 64.6887 37.3695 63.6413 37.3695 62.3498V57.6719C37.3695 56.3803 36.4888 55.333 35.4027 55.333H31.469ZM41.3032 29.6046C41.3032 28.3129 42.1839 27.2657 43.27 27.2657H47.2037C48.2898 27.2657 49.1705 28.3129 49.1705 29.6046V34.2825C49.1705 35.5742 48.2898 36.6214 47.2037 36.6214H43.27C42.1839 36.6214 41.3032 35.5742 41.3032 34.2825V29.6046ZM43.27 41.2993C42.1839 41.2993 41.3032 42.3467 41.3032 43.6383V48.3161C41.3032 49.6077 42.1839 50.6551 43.27 50.6551H47.2037C48.2898 50.6551 49.1705 49.6077 49.1705 48.3161V43.6383C49.1705 42.3467 48.2898 41.2993 47.2037 41.2993H43.27ZM41.3032 57.6719C41.3032 56.3803 42.1839 55.333 43.27 55.333H47.2037C48.2898 55.333 49.1705 56.3803 49.1705 57.6719V62.3498C49.1705 63.6413 48.2898 64.6887 47.2037 64.6887H43.27C42.1839 64.6887 41.3032 63.6413 41.3032 62.3498V57.6719Z" fill="white" fill-opacity="0.3"/>
<path d="M13.7678 92.7564V13.2324H7.86734C5.69485 13.2324 3.93367 15.3268 3.93367 17.9103V88.0785H1.96684C0.880591 88.0785 0 89.1259 0 90.4174C0 91.709 0.880591 92.7564 1.96684 92.7564H13.7678Z" fill="white" fill-opacity="0.3"/>
<path d="M76.7073 92.7556H64.9062V30.9199L72.7582 36.2557C73.984 37.0888 74.7404 38.6386 74.7404 40.3175V88.0777H76.7073C77.7933 88.0777 78.6741 89.1251 78.6741 90.4166C78.6741 91.7082 77.7933 92.7556 76.7073 92.7556Z" fill="white" fill-opacity="0.3"/>
<path d="M43.2716 92.7554V76.3828H35.4043V92.7554H43.2716Z" fill="white" fill-opacity="0.3"/>
</svg>
